<svg xmlns="http://www.w3.org/2000/svg" id="Layer_2" data-name="Layer 2" viewBox="0 0 1172.69 223.58"><defs><style>      .cls-1 {        fill: #a5c3c2;      }      .cls-1, .cls-2, .cls-3 {        stroke-width: 0px;      }      .cls-2 {        fill: #eb940e;      }      .cls-3 {        fill: #bc5a1b;      }    </style></defs><g id="Layer_1-2" data-name="Layer 1"><g><path class="cls-3" d="m367.31,223.06h5.93v-26.09h-5.93v10.03h-10.21v-10.03h-5.93v26.09h5.93v-10.51h10.21v10.51Z"></path><path class="cls-3" d="m394.11,223.58c8.16,0,13.94-5.59,13.94-13.57s-5.78-13.57-13.94-13.57-13.9,5.59-13.9,13.57,5.74,13.57,13.9,13.57Zm-7.87-13.57c0-4.69,3.24-7.94,7.87-7.94s7.87,3.25,7.87,7.94-3.21,7.94-7.87,7.94-7.87-3.24-7.87-7.94Z"></path><path class="cls-3" d="m415.02,223.06h17.33v-5.56h-11.41v-20.54h-5.93v26.09Z"></path><path class="cls-3" d="m438.73,223.06h5.93v-26.09h-5.93v26.09Z"></path><path class="cls-3" d="m462.25,223.58c6.19,0,9.99-2.95,9.99-7.87,0-4.14-2.72-6.6-9.21-8.13-3.99-.93-5.37-1.94-5.37-3.54,0-1.71,1.53-2.76,4.03-2.76,2.72,0,4.36,1.42,4.36,3.77h5.7c0-5.26-3.95-8.61-10.14-8.61s-9.73,2.94-9.73,7.72c0,4.25,2.87,6.78,8.98,8.09,3.69.78,5.37,1.86,5.37,3.69s-1.57,2.76-4.03,2.76c-2.87,0-4.73-1.46-4.73-3.95h-5.82c0,5.41,4.03,8.84,10.58,8.84Z"></path><path class="cls-3" d="m485.54,223.06h5.93v-20.54h8.27v-5.56h-22.48v5.56h8.27v20.54Z"></path><path class="cls-3" d="m506.23,223.06h5.93v-26.09h-5.93v26.09Z"></path><path class="cls-3" d="m532.62,223.58c6.86,0,12.19-4.17,13.49-10.51h-6.11c-1.08,2.98-3.84,4.88-7.27,4.88-4.43,0-7.57-3.24-7.57-7.94s3.17-7.94,7.61-7.94c3.32,0,6.04,1.79,7.04,4.66h6.11c-1.49-6.26-6.71-10.29-13.35-10.29-7.9,0-13.46,5.59-13.46,13.57s5.56,13.57,13.5,13.57Z"></path><path class="cls-3" d="m563.97,223.06h17.33v-5.56h-11.41v-20.54h-5.93v26.09Z"></path><path class="cls-3" d="m587.68,223.06h17.56v-5.03h-11.67v-5.7h10.25v-4.96h-10.25v-5.41h11.26v-5h-17.15v26.09Z"></path><path class="cls-3" d="m609.71,223.06h6.34l1.75-4.51h10.36l1.75,4.51h6.34l-10.36-26.09h-5.82l-10.36,26.09Zm9.62-9.17l3.65-9.54,3.69,9.54h-7.35Z"></path><path class="cls-3" d="m641.95,223.06h5.93v-8.13h3.91l4.66,8.13h6.86l-5.41-9.06c3.13-1.38,4.96-4.21,4.96-8.05,0-5.56-3.8-8.99-9.77-8.99h-11.14v26.09Zm5.85-13.12v-7.9h4.51c2.91,0,4.55,1.42,4.55,3.95s-1.64,3.95-4.55,3.95h-4.51Z"></path><path class="cls-3" d="m670.43,223.06h5.89v-15.99l11.52,15.99h5.03v-26.09h-5.89v15.88l-11.52-15.88h-5.03v26.09Z"></path><path class="cls-3" d="m701.37,223.06h5.93v-26.09h-5.93v26.09Z"></path><path class="cls-3" d="m715.8,223.06h5.89v-15.99l11.52,15.99h5.03v-26.09h-5.89v15.88l-11.52-15.88h-5.03v26.09Z"></path><path class="cls-3" d="m758.89,223.58c8.61,0,14.16-6.37,13.57-15.32h-14.73v4.58h8.46c-.74,3.17-3.43,5.29-7.23,5.29-4.77,0-7.83-3.43-7.83-8.13s3.17-8.13,7.75-8.13c2.91,0,5.33,1.34,6.6,3.62h6.37c-1.57-5.48-6.75-9.06-13.08-9.06-7.94,0-13.57,5.63-13.57,13.57s5.67,13.57,13.68,13.57Z"></path><path class="cls-3" d="m790.39,223.06h17.56v-5.03h-11.67v-5.7h10.25v-4.96h-10.25v-5.41h11.26v-5h-17.15v26.09Z"></path><path class="cls-3" d="m813.09,223.06h6.97l3.58-5.52,2.2-3.32,2.16,3.32,3.58,5.52h6.97l-8.87-13.38,8.42-12.71h-6.75l-5.56,8.46-2.38-3.62-3.13-4.85h-6.78l8.46,12.75-8.87,13.35Z"></path><path class="cls-3" d="m844.92,223.06h5.93v-7.27h4.29c6.3,0,10.36-3.69,10.36-9.4s-4.06-9.43-10.36-9.43h-10.21v26.09Zm5.89-12.37v-8.54h3.84c3.1,0,4.81,1.57,4.81,4.29s-1.71,4.25-4.81,4.25h-3.84Z"></path><path class="cls-3" d="m871.95,223.06h17.56v-5.03h-11.67v-5.7h10.25v-4.96h-10.25v-5.41h11.26v-5h-17.15v26.09Z"></path><path class="cls-3" d="m896.77,223.06h5.93v-8.13h3.91l4.66,8.13h6.86l-5.41-9.06c3.13-1.38,4.96-4.21,4.96-8.05,0-5.56-3.8-8.99-9.77-8.99h-11.14v26.09Zm5.85-13.12v-7.9h4.51c2.91,0,4.55,1.42,4.55,3.95s-1.64,3.95-4.55,3.95h-4.51Z"></path><path class="cls-3" d="m925.25,223.06h5.93v-26.09h-5.93v26.09Z"></path><path class="cls-3" d="m939.68,223.06h17.56v-5.03h-11.67v-5.7h10.25v-4.96h-10.25v-5.41h11.26v-5h-17.15v26.09Z"></path><path class="cls-3" d="m964.5,223.06h5.89v-15.99l11.52,15.99h5.03v-26.09h-5.89v15.88l-11.52-15.88h-5.03v26.09Z"></path><path class="cls-3" d="m1007.41,223.58c6.86,0,12.19-4.17,13.49-10.51h-6.11c-1.08,2.98-3.84,4.88-7.27,4.88-4.43,0-7.57-3.24-7.57-7.94s3.17-7.94,7.61-7.94c3.32,0,6.04,1.79,7.04,4.66h6.11c-1.49-6.26-6.71-10.29-13.35-10.29-7.9,0-13.46,5.59-13.46,13.57s5.56,13.57,13.5,13.57Z"></path><path class="cls-3" d="m1027.76,223.06h17.56v-5.03h-11.67v-5.7h10.25v-4.96h-10.25v-5.41h11.26v-5h-17.15v26.09Z"></path><path class="cls-3" d="m1061.68,223.58c6.19,0,9.99-2.95,9.99-7.87,0-4.14-2.72-6.6-9.21-8.13-3.99-.93-5.37-1.94-5.37-3.54,0-1.71,1.53-2.76,4.03-2.76,2.72,0,4.36,1.42,4.36,3.77h5.7c0-5.26-3.95-8.61-10.14-8.61s-9.73,2.94-9.73,7.72c0,4.25,2.87,6.78,8.98,8.09,3.69.78,5.37,1.86,5.37,3.69s-1.57,2.76-4.03,2.76c-2.87,0-4.73-1.46-4.73-3.95h-5.82c0,5.41,4.03,8.84,10.58,8.84Z"></path><path class="cls-3" d="m310.45,42.27l-3.37,1.12-2.81,8.05-2.81,58.03-1.68,12.92-2.25,40.44.94,3.93,1.5,2.43,4.68,1.5,2.81,1.12h3.93l3-2.06,1.31-3.37,1.12-8.61v-17.04l3.56-44.37,1.5-6.55,5.24,13.29,6.37,26.58,5.62,12.92,5.99,22.09,2.25,5.62,3,1.68,3,.38,2.62-.94,3.56-3.18,1.87-3.56v-6.36l1.5-19.47,1.5-5.62c1.5-5.99,2.25-8.8,2.25-8.42,6.37-21.34,10.48-34.44,12.36-39.31v12.17l-1.5,24.15-.56,25.83c0,2.06-1.12,9.36-3.37,22.09l.19,1.31c0,.94.38,1.87.75,2.81.37,1.12.94,1.68,1.68,1.87h.94s.19.19.56.19h.56c.75,0,1.87,0,3.75-.37.75,0,1.68-.19,3.18-.19,1.31-.19,2.81-.94,4.3-2.25,1.5-1.12,2.62-2.43,3.18-3.93.19-1.5.37-8.24.37-20.03v-9.92c0-7.49.19-11.23.56-11.23v-29.95l3.37-41.75-1.68-12.17c-.37-3.37-2.25-5.8-5.62-7.3l-5.24-.56-9.55,2.62-1.5,8.42-4.12,5.99-3.74,11.98-.94,10.49-13.11,46.99-1.87-5.62-5.99-15.16-2.81-11.98-5.99-19.66c0-.37-.94-3.56-2.81-9.17-1.87-5.62-3-8.8-3.37-9.74l-.56-1.12c-3.37-5.24-4.87-8.42-4.87-9.17,0-.19-.56-.56-1.31-1.12-.75-.56-1.87-1.12-3.37-1.68-1.5-.56-2.81-.94-3.93-.94-2.43.56-3.75,2.25-4.12,4.87Z"></path><path class="cls-3" d="m420.15,40.96v.19l-3.37,61.03v41.37l-1.5,20.78,3.93,6.37,15.54-2.06,2.81-3.56.75-6.55v-52.98l.75-7.68v-10.29l2.06-19.84.56-24.9c0-1.5-3-2.99-8.8-4.12l-4.87-1.12c-1.5-.19-2.43-.38-2.81-.38-2.99,0-4.68,1.31-5.05,3.75Z"></path><path class="cls-3" d="m546.51,162.08l-.19-.56-5.05-8.42v.19l-10.86-20.41-13.48-22.09c8.24-4.12,12.73-6.18,13.48-6.18l-.75-.19c.75,0,1.5-.75,2.43-2.25,2.62-5.99,4.12-10.67,4.68-14.23,0-.94.19-2.81.19-5.62,0-2.62-.19-5.62-.19-8.61-.56-3.93-1.31-7.3-2.25-9.92-1.12-2.62-3-6.37-5.99-10.86-3-4.3-9.17-8.42-18.35-12.36-9.36-3.93-15.73-5.99-19.09-5.99-2.25.19-6.74.56-13.85,1.31-7.11.75-10.86,1.12-11.42,1.12l-4.68.94-2.43.56c-.37.19-.75.19-1.12.19-3.74.75-5.43,2.99-5.43,6.92s.94,6.37,2.81,8.24l2.43,1.31c.38,0,1.12,0,2.06-.19.75,0,1.5-.19,2.06-.19v53.73l-2.81.38h-5.62l-5.62,2.43-.56,4.49c0,2.62.19,4.87.94,6.74v-.19c.94,2.99,3.56,4.49,7.86,4.49,1.5,0,2.81,0,4.12-.38,1.31-.37,2.25-.75,2.62-1.12v14.98c-.19,1.31-.19,5.43-.19,12.36,0,6.18,0,10.11.19,11.61.38,4.49,2.81,6.74,7.68,6.74,3.37,0,5.62,0,6.74-.19h.37c.19,0,.37-.19.56-.19h1.12c2.25-.19,4.87-1.68,7.86-4.68v-7.3l-2.81-20.78v-16.29l9.36-.56c1.12,1.5,2.81,3.74,5.05,6.55s3.93,4.87,5.05,6.37l-.19-.19,2.06,5.24,18.91,28.45,1.31.75c.75.37,1.5.94,2.62,1.31,1.12.37,1.87.56,2.43.56h3c3.74,0,6.74-.38,8.61-1.31,2.81-1.31,4.31-3.56,4.31-6.74Zm-43.99-64.21l-2.81,1.87c-.56.37-1.5.75-2.81,1.12s-2.62.56-3.93.75l-2.25.37-6.93.94v-6.92c-.19-.94-.37-2.43-.56-4.49-.37-2.06-.37-3.56-.37-4.68v-31.08h3.56c3.37,0,5.8.19,7.3.19,3.37.75,7.67,2.43,13.29,5.24,2.25.37,3.93,2.62,5.05,6.36,1.12,3.93,1.68,7.3,1.68,9.92,0,5.05-.94,9.36-2.62,12.92-.94,2.62-3.75,5.05-8.61,7.49Z"></path><path class="cls-3" d="m650.22,162.08l-5.8-19.09c-1.31-3.37-3.37-8.61-5.99-15.73-2.81-7.11-4.87-12.36-5.99-15.91l-10.29-27.52-13.67-26.02h.19l-1.5-4.12c-1.12-2.62-2.43-5.43-3.74-8.8-1.5-3.18-2.43-5.43-3.18-6.74-1.87-2.25-4.68-3.56-8.42-3.56-2.62,0-4.87.37-6.74.75-3.75,1.12-5.43,2.99-5.43,5.8v1.12l.75,1.87,1.31,2.81-3.75,12.92v-.19l-10.11,29.02-7.3,28.08v-.19l-12.36,37.63v6.55l-.37,2.06-.56,3.37c0,1.5,0,3.18.37,5.05,0,.37.38,1.5,1.12,2.99h5.99c.37,0,1.12,0,2.25-.19l3.93-1.87,2.62-2.81,1.68-9.92v.19l4.68-13.48,3.74-9.73,1.12-3h5.99l30.89-2.43,2.43,1.68,13.48,32.57,3.37,4.49,2.25,1.12h2.62l8.61-1.68,3.74-1.68,2.06-5.43Zm-44.56-49.8l-.94.75.19-.19-5.05,1.5-11.04.37-9.36,1.12-.38-.56c0-.56.38-1.5.75-2.62s.56-2.06.75-2.62l4.49-14.98v.19l7.3-20.22c0,.37.19.75.56.94l5.99,15.54v-.19l5.05,16.85,1.68,4.12Z"></path><path class="cls-3" d="m665.19,40.96v.19l-3.37,61.03v41.37l-1.5,20.78,3.93,6.37,15.54-2.06,2.81-3.56.75-6.55v-52.98l.75-7.68v-10.29l2.06-19.84.56-24.9c0-1.5-3-2.99-8.8-4.12l-4.87-1.12c-1.5-.19-2.43-.38-2.81-.38-2.99,0-4.68,1.31-5.05,3.75Z"></path><path class="cls-3" d="m770.4,42.27l-3.37,1.12-2.81,8.05-2.81,58.03-1.68,12.92-2.25,40.44.94,3.93,1.5,2.43,4.68,1.5,2.81,1.12h3.93l3-2.06,1.31-3.37,1.12-8.61v-17.04l3.56-44.37,1.5-6.55,5.24,13.29,6.37,26.58,5.62,12.92,5.99,22.09,2.25,5.62,3,1.68,3,.38,2.62-.94,3.56-3.18,1.87-3.56v-6.36l1.5-19.47,1.5-5.62c1.5-5.99,2.25-8.8,2.25-8.42,6.37-21.34,10.48-34.44,12.36-39.31v12.17l-1.5,24.15-.56,25.83c0,2.06-1.12,9.36-3.37,22.09l.19,1.31c0,.94.38,1.87.75,2.81.37,1.12.94,1.68,1.68,1.87h.94s.19.19.56.19h.56c.75,0,1.87,0,3.75-.37.75,0,1.68-.19,3.18-.19,1.31-.19,2.81-.94,4.3-2.25,1.5-1.12,2.62-2.43,3.18-3.93.19-1.5.37-8.24.37-20.03v-9.92c0-7.49.19-11.23.56-11.23v-29.95l3.37-41.75-1.68-12.17c-.37-3.37-2.25-5.8-5.62-7.3l-5.24-.56-9.55,2.62-1.5,8.42-4.12,5.99-3.74,11.98-.94,10.49-13.11,46.99-1.87-5.62-5.99-15.16-2.81-11.98-5.99-19.66c0-.37-.94-3.56-2.81-9.17-1.87-5.62-3-8.8-3.37-9.74l-.56-1.12c-3.37-5.24-4.87-8.42-4.87-9.17,0-.19-.56-.56-1.31-1.12-.75-.56-1.87-1.12-3.37-1.68-1.5-.56-2.81-.94-3.93-.94-2.43.56-3.75,2.25-4.12,4.87Z"></path><path class="cls-3" d="m880.1,40.96v.19l-3.37,61.03v41.37l-1.5,20.78,3.93,6.37,15.54-2.06,2.81-3.56.75-6.55v-52.98l.75-7.68v-10.29l2.06-19.84.56-24.9c0-1.5-3-2.99-8.8-4.12l-4.87-1.12c-1.5-.19-2.43-.38-2.81-.38-2.99,0-4.68,1.31-5.05,3.75Z"></path><path class="cls-3" d="m919.22,46.76l3.18,55.98v36.51l2.62,25.83,4.12,2.81,4.49-.38c.56,0,1.31,0,2.25-.19l6.74-1.5,1.31-13.29c-.19-1.68-.37-4.3-.75-7.67-.37-3.37-.75-5.8-.75-7.49l-.38-38.75.75.56,30.52,61.4,1.31,4.68,1.12,1.31c.56.94,1.68,1.87,3.37,2.81,1.5.94,3.37,1.31,5.24,1.31,3.18,0,6.55-2.43,10.11-7.3l.94-.94v-14.04l-1.68-31.26-5.05-44.74-2.99-24.9c-.38-1.87-1.5-3.37-3.18-4.87-1.87-1.5-3.18-2.43-4.12-2.81-1.12-.38-1.87-.56-2.43-.75l-7.11.94-3.56,5.99,1.12,18.35,6.74,56.72c0,.37,0,1.12.37,2.06l.56,2.25c0,.19-.19.38-.19.38v.19l-.94-1.68c-1.87-4.49-4.12-9.55-6.36-14.79-2.25-5.24-4.87-11.23-7.49-17.79-2.81-6.36-4.87-11.42-6.37-14.79l-9.55-22.84c-1.87-3.56-4.87-7.67-9.17-12.17l-5.05-1.87h-4.87l-2.25,4.31c0,.19-.19.56-.19,1.12v1.12l-2.43.19Z"></path><path class="cls-3" d="m1085.64,72.03c-.94-1.87-2.62-5.05-4.87-9.55-2.25-4.49-3.93-7.11-4.68-8.05-.75-.94-3-3-6.74-6.37-3.74-3.18-6.18-5.24-7.3-5.99-5.24-2.62-11.61-3.93-19.09-3.93-4.87,0-10.48,1.12-16.85,2.99l-1.12,2.81-5.99-.94-1.87,19.09-3.56,98.47,8.42,5.8.56.75c.38.37.75.94,1.5,1.31.56.37,1.12.56,1.68.56,1.12,0,2.81-.75,5.24-2.25l22.46-2.62c9.36-1.12,18.35-8.8,27.33-23.03,5.8-8.99,9.36-21.9,10.67-38.56,0-1.12.19-2.62.19-4.68,0-9.73-2.06-18.35-5.99-25.83Zm-14.79,39.87l-.56,3c-.56,2.06-1.31,4.68-2.43,7.67-1.12,3-2.43,5.62-3.56,7.68-1.87,3.37-5.99,6.92-11.98,10.29-5.99,3.37-10.11,5.05-12.17,5.05s-4.68-.19-7.67-.94l1.68-18.53v-33.51l2.99-35.38h.94c.37,0,.75-.19,1.12-.19,5.05,0,11.61,2.25,19.47,6.74,2.81,1.87,5.43,5.05,8.05,9.55,2.43,4.68,4.12,9.17,4.87,13.67.37,2.99.75,5.62.75,7.49,0,5.62-.56,11.42-1.5,17.41Z"></path><path class="cls-3" d="m1131.69,76.9v-.94c.75-1.5,1.87-3.56,3.56-5.8s3.18-3.56,4.31-3.93c.94-.19,2.99-.56,5.99-1.31,3-.56,5.05-.94,5.99-1.31l5.24-1.31,6.74.94,5.8.37,2.99-2.81.19-6.36-.56-4.31.75-2.99-1.31-4.12c-1.87-.75-4.12-1.5-6.74-2.62l-14.04-.75c-7.11,0-12.17.94-14.98,2.62h.19c-2.25,1.12-4.68,2.62-7.3,4.49-2.62,1.87-5.8,4.12-9.17,6.93-3.37,3-6.18,6.37-8.42,10.11-2.25,3.74-3.37,7.49-3.37,11.23,0,1.5,0,2.43.19,2.81v-.19c1.31,10.49,4.31,17.97,8.99,22.46l17.6,18.53,1.5,1.68c1.12,1.12,2.06,2.81,3.18,4.87,1.12,2.25,1.68,4.3,1.68,6.18v.94c-.38,3.74-1.31,6.55-2.43,8.8-1.12,2.25-2.43,3.56-3.93,3.56-5.24.56-9.17,1.31-12.17,2.06l-7.68,1.31-.75,1.12c-.38.75-.94,1.5-1.31,2.43-.56,1.12-.94,1.87-.94,2.43,0,2.62,1.5,7.12,4.68,13.29,0,.75.56,1.5,1.68,2.43l20.41-2.99,6.18-2.62c3.93-1.87,8.05-4.68,12.54-8.42,4.49-3.74,7.11-7.67,7.86-11.79.75-4.87,1.31-8.99,1.31-12.54,0-4.49-1.31-8.61-3.93-12.73-2.62-3.56-9.55-12.92-21.15-28.08l-5.43-5.8-.94-1.12c-.75-.56-1.5-1.5-2.06-2.81-.75-1.31-.94-2.62-.94-3.93Zm-.19-.56l.19-.38-.19.38Z"></path></g><g><path class="cls-2" d="m70.78,145.21L0,46.92l189.7,98.29h-118.92Z"></path><path class="cls-3" d="m189.7,145.21l-76.59-53.2L223.67,23.06l-33.97,122.15Z"></path><path class="cls-2" d="m223.67,23.06l36.81,18.2-44.83,10.66,8.02-28.85Z"></path><path class="cls-3" d="m70.78,145.21l-38.84,70.38,157.75-70.38h-118.92Z"></path><path class="cls-1" d="m70.78,145.21L39.64,0l150.07,145.21h-118.92Z"></path></g></g></svg>